<svg xmlns="http://www.w3.org/2000/svg" viewBox="0 0 100 100" role="img" aria-label="Artist avatar">
  <defs>
    <linearGradient id="artist-body-gradient" x1="50" y1="70" x2="50" y2="100" gradientUnits="userSpaceOnUse">
      <stop offset="0" stop-color="#fff779"/>
      <stop offset=".62" stop-color="#ffe137"/>
      <stop offset="1" stop-color="#ff9c19"/>
    </linearGradient>
    <linearGradient id="artist-body-shadow" x1="38" y1="76" x2="40" y2="98" gradientUnits="userSpaceOnUse">
      <stop offset="0" stop-color="#1f9bc6"/>
      <stop offset="1" stop-color="#0d6f95"/>
    </linearGradient>
    <radialGradient id="artist-face-gradient" cx="41" cy="36" r="45" gradientUnits="userSpaceOnUse">
      <stop offset="0" stop-color="#ffd9c4"/>
      <stop offset=".55" stop-color="#ffc0a6"/>
      <stop offset="1" stop-color="#ef9278"/>
    </radialGradient>
    <radialGradient id="artist-ear-gradient" cx="25" cy="44" r="11" gradientUnits="userSpaceOnUse">
      <stop offset="0" stop-color="#ffd6c1"/>
      <stop offset="1" stop-color="#f4a083"/>
    </radialGradient>
    <radialGradient id="artist-beret-gradient" cx="35" cy="12" r="53" gradientUnits="userSpaceOnUse">
      <stop offset="0" stop-color="#ff4268"/>
      <stop offset=".55" stop-color="#ee1d56"/>
      <stop offset="1" stop-color="#8a1631"/>
    </radialGradient>
    <linearGradient id="artist-beret-fold-gradient" x1="20" y1="24" x2="58" y2="44" gradientUnits="userSpaceOnUse">
      <stop offset="0" stop-color="#ff3a63"/>
      <stop offset=".54" stop-color="#db0b47"/>
      <stop offset="1" stop-color="#7b1730"/>
    </linearGradient>
    <linearGradient id="artist-scarf-gradient" x1="50" y1="62" x2="50" y2="81" gradientUnits="userSpaceOnUse">
      <stop offset="0" stop-color="#35a8d2"/>
      <stop offset=".5" stop-color="#1789b4"/>
      <stop offset="1" stop-color="#075e83"/>
    </linearGradient>
    <linearGradient id="artist-scarf-tail-gradient" x1="36" y1="69" x2="31" y2="96" gradientUnits="userSpaceOnUse">
      <stop offset="0" stop-color="#2da3cc"/>
      <stop offset="1" stop-color="#08739c"/>
    </linearGradient>
    <radialGradient id="artist-eye-gradient" cx="36" cy="39" r="6.5" gradientUnits="userSpaceOnUse">
      <stop offset="0" stop-color="#5a6463"/>
      <stop offset="1" stop-color="#263535"/>
    </radialGradient>
    <radialGradient id="artist-beard-gradient" cx="48" cy="66" r="21" gradientUnits="userSpaceOnUse">
      <stop offset="0" stop-color="#bd6b59"/>
      <stop offset="1" stop-color="#8f3f32"/>
    </radialGradient>
    <linearGradient id="artist-nose-gradient" x1="50" y1="56" x2="50" y2="64" gradientUnits="userSpaceOnUse">
      <stop offset="0" stop-color="#f0a080" stop-opacity=".6"/>
      <stop offset=".55" stop-color="#e08868" stop-opacity=".85"/>
      <stop offset="1" stop-color="#cc7055" stop-opacity="1"/>
    </linearGradient>
    <radialGradient id="artist-cheek-gradient" cx="0" cy="0" r="1">
      <stop offset="0" stop-color="#ff9a9a" stop-opacity=".5"/>
      <stop offset="1" stop-color="#ff9a9a" stop-opacity="0"/>
    </radialGradient>
  </defs>
  <g id="avatar-artist">
    <path fill="url(#artist-body-gradient)" d="M7.2 96.4c0-18.9 19-33.6 42.8-33.6s42.8 14.7 42.8 33.6c0 2-1.6 3.6-3.6 3.6h-78.4c-2 0-3.6-1.6-3.6-3.6Z"/>
    <path fill="url(#artist-body-shadow)" d="M31.1 71.7c1.2-4.8 4.9-7.8 9.9-7.8h5.9l-6 30.9c-.4 1.8-1.9 3.1-3.8 3.1h-8.5c-1.9 0-3.3-1.6-3-3.5l5.5-22.7Z"/>
    <path fill="#0d7196" d="M26.6 94.2h1.9v3.1a1 1 0 0 1-1 1h-.1a1 1 0 0 1-.9-1l.1-3.1Zm4.1 0h2.1v3.7a1.1 1.1 0 0 1-2.1 0v-3.7Zm4.5 0h2.1v3.7a1.1 1.1 0 0 1-2.1 0v-3.7Zm4.5 0h2.1v3.1a1 1 0 0 1-2.1 0v-3.1Z"/>
    <ellipse cx="21.8" cy="51" rx="8.2" ry="8.8" fill="url(#artist-ear-gradient)"/>
    <ellipse cx="78.2" cy="51" rx="8.2" ry="8.8" fill="url(#artist-ear-gradient)"/>
    <path fill="url(#artist-face-gradient)" d="M23.7 46.4c0-8.8 6.6-12.7 14.6-12.7h23.4c8 0 14.6 3.9 14.6 12.7v8.2c0 12.7-10.3 21.8-26.3 21.8s-26.3-9.1-26.3-21.8v-8.2Z"/>
    <ellipse cx="33.3" cy="61.3" rx="8.5" ry="5.8" fill="url(#artist-cheek-gradient)" opacity=".55"/>
    <ellipse cx="66.7" cy="61.3" rx="8.5" ry="5.8" fill="url(#artist-cheek-gradient)" opacity=".45"/>
    <path fill="url(#artist-scarf-gradient)" d="M28.7 62.5c4.9 5.8 12.2 9.4 21.3 9.4s16.4-3.6 21.3-9.4c1.7 1.9 2.2 4.8 1.4 7.3-1.4 4.6-10 9.7-22.7 9.7s-21.3-5.1-22.7-9.7c-.8-2.5-.3-5.4 1.4-7.3Z"/>
    <path fill="#0a6689" d="M40 73c5.5 2.5 14.9 3.2 22.6.7-2.7 3.4-7.1 5.8-12.9 5.8-6 0-9.2-2.7-9.7-6.5Z" opacity=".45"/>
    <path fill="url(#artist-scarf-tail-gradient)" d="M32.1 69.4c3.3 2.6 6.9 3.8 11.5 3.9l-3.7 20.1c-.3 1.5-1.6 2.6-3.1 2.6h-8.5c-1.5 0-2.6-1.3-2.4-2.8l6.2-23.8Z"/>
    <path fill="url(#artist-beret-fold-gradient)" d="M17.4 35.3c11.7-5.6 28.1-6.4 45.8-2.1-5.9 8.2-21 12.1-39.8 11.3-4.9-.2-7.3-3.5-6-9.2Z"/>
    <path fill="url(#artist-beret-gradient)" d="M17.6 13.2C28.2-2.3 56-1.2 75.6 13.9c13.2 10.2 15.2 25.1 4.9 30.4-12.8 6.6-36.1 1.4-55.5-8.9-11.7-6.3-12.6-15-7.4-22.2Z"/>
    <ellipse cx="22" cy="8" rx="4.9" ry="4.4" fill="url(#artist-beret-gradient)" transform="rotate(28 22 8)"/>
    <ellipse cx="38" cy="50.7" rx="3.5" ry="4.2" fill="url(#artist-eye-gradient)"/>
    <ellipse cx="62" cy="50.7" rx="3.5" ry="4.2" fill="url(#artist-eye-gradient)"/>
    <circle cx="36.8" cy="49" r=".85" fill="#ffffff" opacity=".45"/>
    <circle cx="60.8" cy="49" r=".85" fill="#ffffff" opacity=".45"/>
    <path fill="url(#artist-nose-gradient)" d="M50 56c2 1.9 3 4.2 3 6 0 2.2-1.6 3.3-3 3.3s-3-1.1-3-3.3c0-1.8 1-4.1 3-6Z"/>
    <ellipse cx="50" cy="70.8" rx="10.8" ry="7.2" fill="url(#artist-beard-gradient)"/>
    <ellipse cx="50" cy="69.1" rx="5.7" ry="3.4" fill="#ffc1a8"/>
  </g>
</svg>
